<mxfile host="app.diagrams.net" modified="2021-01-12T16:06:58.205Z" agent="5.0 (Windows)" etag="REEa3ykjtbPQB3QTmEx4" version="13.10.3" type="github">
  <diagram id="o0INVtrl_HaOCbozMFdC" name="Page-1">
    <mxGraphModel dx="1303" dy="782" grid="1" gridSize="10" guides="1" tooltips="1" connect="1" arrows="1" fold="1" page="1" pageScale="1" pageWidth="827" pageHeight="1169" math="0" shadow="0">
      <root>
        <mxCell id="0" />
        <mxCell id="1" parent="0" />
        <mxCell id="MSUnSL8aML1kYVfd3VcO-14" value="station" style="html=1;align=center;verticalAlign=top;rounded=1;absoluteArcSize=1;arcSize=10;dashed=0;" vertex="1" parent="1">
          <mxGeometry x="90.41000000000003" y="120" width="76.68" height="45" as="geometry" />
        </mxCell>
        <mxCell id="MSUnSL8aML1kYVfd3VcO-58" value="" style="html=1;align=center;verticalAlign=top;rounded=1;absoluteArcSize=1;arcSize=10;dashed=0;" vertex="1" parent="1">
          <mxGeometry x="90.41" y="75" width="76.68" height="45" as="geometry" />
        </mxCell>
        <mxCell id="MSUnSL8aML1kYVfd3VcO-59" value="platoon" style="html=1;align=center;verticalAlign=top;rounded=1;absoluteArcSize=1;arcSize=10;dashed=0;" vertex="1" parent="1">
          <mxGeometry x="495.82" y="42.5" width="464.18" height="147.5" as="geometry" />
        </mxCell>
        <mxCell id="MSUnSL8aML1kYVfd3VcO-57" value="vehicle" style="html=1;align=center;verticalAlign=top;rounded=1;absoluteArcSize=1;arcSize=10;dashed=0;" vertex="1" parent="1">
          <mxGeometry x="213.34" y="70" width="76.68" height="100" as="geometry" />
        </mxCell>
        <mxCell id="MSUnSL8aML1kYVfd3VcO-1" value="" style="rounded=1;whiteSpace=wrap;html=1;fillColor=#C4E8F5;" vertex="1" parent="1">
          <mxGeometry x="188.34" y="260" width="120" height="40" as="geometry" />
        </mxCell>
        <mxCell id="MSUnSL8aML1kYVfd3VcO-2" value="" style="rounded=1;whiteSpace=wrap;html=1;fillColor=#C4E8F5;" vertex="1" parent="1">
          <mxGeometry x="33.34" y="260" width="120" height="40" as="geometry" />
        </mxCell>
        <mxCell id="MSUnSL8aML1kYVfd3VcO-3" value="" style="rounded=1;whiteSpace=wrap;html=1;fillColor=#C4E8F5;" vertex="1" parent="1">
          <mxGeometry x="1031" y="225" width="120" height="100" as="geometry" />
        </mxCell>
        <mxCell id="MSUnSL8aML1kYVfd3VcO-6" value="" style="rounded=1;whiteSpace=wrap;html=1;fillColor=#C4E8F5;" vertex="1" parent="1">
          <mxGeometry x="1031" y="65" width="120" height="125" as="geometry" />
        </mxCell>
        <mxCell id="MSUnSL8aML1kYVfd3VcO-7" value="" style="rounded=1;whiteSpace=wrap;html=1;strokeColor=#36393d;fillColor=#C4E8F5;" vertex="1" parent="1">
          <mxGeometry x="562.5" y="350" width="300" height="205" as="geometry" />
        </mxCell>
        <mxCell id="MSUnSL8aML1kYVfd3VcO-8" value="" style="rounded=0;orthogonalLoop=1;jettySize=auto;html=1;endArrow=halfCircle;endFill=0;endSize=6;strokeWidth=1;exitX=0;exitY=0.5;exitDx=0;exitDy=0;" edge="1" parent="1" source="MSUnSL8aML1kYVfd3VcO-9" target="MSUnSL8aML1kYVfd3VcO-30">
          <mxGeometry relative="1" as="geometry">
            <mxPoint x="423.34" y="273.75" as="sourcePoint" />
            <mxPoint x="188.33999999999997" y="103.75000000000011" as="targetPoint" />
          </mxGeometry>
        </mxCell>
        <mxCell id="MSUnSL8aML1kYVfd3VcO-9" value="connV" style="html=1;" vertex="1" parent="1">
          <mxGeometry x="213.33999999999997" y="93.75" width="35" height="20" as="geometry" />
        </mxCell>
        <mxCell id="MSUnSL8aML1kYVfd3VcO-10" value="next" style="html=1;" vertex="1" parent="1">
          <mxGeometry x="260" y="93.75" width="30" height="20" as="geometry" />
        </mxCell>
        <mxCell id="MSUnSL8aML1kYVfd3VcO-11" value="leader" style="html=1;" vertex="1" parent="1">
          <mxGeometry x="495.82000000000005" y="107.5" width="35" height="20" as="geometry" />
        </mxCell>
        <mxCell id="MSUnSL8aML1kYVfd3VcO-12" value="" style="rounded=0;orthogonalLoop=1;jettySize=auto;html=1;endArrow=halfCircle;endFill=0;endSize=6;strokeWidth=1;" edge="1" parent="1">
          <mxGeometry relative="1" as="geometry">
            <mxPoint x="537.1899999999999" y="112.5" as="sourcePoint" />
            <mxPoint x="537.1899999999999" y="112.5" as="targetPoint" />
          </mxGeometry>
        </mxCell>
        <mxCell id="MSUnSL8aML1kYVfd3VcO-13" value="moving" style="html=1;" vertex="1" parent="1">
          <mxGeometry x="127.08999999999997" y="93.75" width="40" height="20" as="geometry" />
        </mxCell>
        <mxCell id="MSUnSL8aML1kYVfd3VcO-15" value="refill" style="html=1;" vertex="1" parent="1">
          <mxGeometry x="120.25" y="140" width="46" height="20" as="geometry" />
        </mxCell>
        <mxCell id="MSUnSL8aML1kYVfd3VcO-16" value="docks" style="html=1;" vertex="1" parent="1">
          <mxGeometry x="213.33999999999997" y="140" width="35" height="20" as="geometry" />
        </mxCell>
        <mxCell id="MSUnSL8aML1kYVfd3VcO-17" value="" style="rounded=0;orthogonalLoop=1;jettySize=auto;html=1;endArrow=halfCircle;endFill=0;endSize=6;strokeWidth=1;exitX=0;exitY=0.5;exitDx=0;exitDy=0;entryX=0.5;entryY=0.5;entryDx=0;entryDy=0;entryPerimeter=0;" edge="1" parent="1">
          <mxGeometry relative="1" as="geometry">
            <mxPoint x="213.33999999999997" y="149.5" as="sourcePoint" />
            <mxPoint x="188.33999999999997" y="149.5" as="targetPoint" />
          </mxGeometry>
        </mxCell>
        <mxCell id="MSUnSL8aML1kYVfd3VcO-18" value="" style="rounded=0;orthogonalLoop=1;jettySize=auto;html=1;endArrow=none;endFill=0;exitX=1;exitY=0.5;exitDx=0;exitDy=0;" edge="1" parent="1" target="MSUnSL8aML1kYVfd3VcO-19">
          <mxGeometry relative="1" as="geometry">
            <mxPoint x="290" y="103.75" as="sourcePoint" />
          </mxGeometry>
        </mxCell>
        <mxCell id="MSUnSL8aML1kYVfd3VcO-19" value="" style="ellipse;whiteSpace=wrap;html=1;fontFamily=Helvetica;fontSize=12;fontColor=#000000;align=center;strokeColor=#000000;fillColor=#ffffff;points=[];aspect=fixed;resizable=0;" vertex="1" parent="1">
          <mxGeometry x="302.5" y="98.75" width="10" height="10" as="geometry" />
        </mxCell>
        <mxCell id="MSUnSL8aML1kYVfd3VcO-20" value="" style="rounded=0;orthogonalLoop=1;jettySize=auto;html=1;endArrow=none;endFill=0;exitX=1;exitY=0.5;exitDx=0;exitDy=0;" edge="1" parent="1" target="MSUnSL8aML1kYVfd3VcO-21">
          <mxGeometry relative="1" as="geometry">
            <mxPoint x="166.24999999999994" y="150" as="sourcePoint" />
          </mxGeometry>
        </mxCell>
        <mxCell id="MSUnSL8aML1kYVfd3VcO-21" value="" style="ellipse;whiteSpace=wrap;html=1;fontFamily=Helvetica;fontSize=12;fontColor=#000000;align=center;strokeColor=#000000;fillColor=#ffffff;points=[];aspect=fixed;resizable=0;" vertex="1" parent="1">
          <mxGeometry x="178.74999999999994" y="145" width="10" height="10" as="geometry" />
        </mxCell>
        <mxCell id="MSUnSL8aML1kYVfd3VcO-22" value="" style="rounded=0;orthogonalLoop=1;jettySize=auto;html=1;endArrow=none;endFill=0;exitX=1;exitY=0.5;exitDx=0;exitDy=0;" edge="1" parent="1">
          <mxGeometry relative="1" as="geometry">
            <mxPoint x="166.24999999999994" y="150" as="sourcePoint" />
            <mxPoint x="178.74999999999994" y="150" as="targetPoint" />
          </mxGeometry>
        </mxCell>
        <mxCell id="MSUnSL8aML1kYVfd3VcO-23" value="" style="rounded=0;orthogonalLoop=1;jettySize=auto;html=1;endArrow=none;endFill=0;exitX=1;exitY=0.5;exitDx=0;exitDy=0;" edge="1" parent="1" target="MSUnSL8aML1kYVfd3VcO-24">
          <mxGeometry relative="1" as="geometry">
            <mxPoint x="166.24999999999994" y="150" as="sourcePoint" />
          </mxGeometry>
        </mxCell>
        <mxCell id="MSUnSL8aML1kYVfd3VcO-24" value="" style="ellipse;whiteSpace=wrap;html=1;fontFamily=Helvetica;fontSize=12;fontColor=#000000;align=center;strokeColor=#000000;fillColor=#ffffff;points=[];aspect=fixed;resizable=0;" vertex="1" parent="1">
          <mxGeometry x="178.74999999999994" y="145" width="10" height="10" as="geometry" />
        </mxCell>
        <mxCell id="MSUnSL8aML1kYVfd3VcO-25" value="" style="rounded=0;orthogonalLoop=1;jettySize=auto;html=1;endArrow=none;endFill=0;exitX=1;exitY=0.5;exitDx=0;exitDy=0;" edge="1" parent="1">
          <mxGeometry relative="1" as="geometry">
            <mxPoint x="166.24999999999994" y="150" as="sourcePoint" />
            <mxPoint x="178.74999999999994" y="150" as="targetPoint" />
          </mxGeometry>
        </mxCell>
        <mxCell id="MSUnSL8aML1kYVfd3VcO-26" value="" style="rounded=0;orthogonalLoop=1;jettySize=auto;html=1;endArrow=none;endFill=0;exitX=1;exitY=0.5;exitDx=0;exitDy=0;" edge="1" parent="1" target="MSUnSL8aML1kYVfd3VcO-27">
          <mxGeometry relative="1" as="geometry">
            <mxPoint x="165.83999999999997" y="103.75" as="sourcePoint" />
          </mxGeometry>
        </mxCell>
        <mxCell id="MSUnSL8aML1kYVfd3VcO-27" value="" style="ellipse;whiteSpace=wrap;html=1;fontFamily=Helvetica;fontSize=12;fontColor=#000000;align=center;strokeColor=#000000;fillColor=#ffffff;points=[];aspect=fixed;resizable=0;" vertex="1" parent="1">
          <mxGeometry x="178.33999999999997" y="98.75" width="10" height="10" as="geometry" />
        </mxCell>
        <mxCell id="MSUnSL8aML1kYVfd3VcO-28" value="" style="rounded=0;orthogonalLoop=1;jettySize=auto;html=1;endArrow=none;endFill=0;exitX=1;exitY=0.5;exitDx=0;exitDy=0;" edge="1" parent="1">
          <mxGeometry relative="1" as="geometry">
            <mxPoint x="165.83999999999997" y="103.75" as="sourcePoint" />
            <mxPoint x="178.33999999999997" y="103.75" as="targetPoint" />
          </mxGeometry>
        </mxCell>
        <mxCell id="MSUnSL8aML1kYVfd3VcO-29" value="" style="rounded=0;orthogonalLoop=1;jettySize=auto;html=1;endArrow=none;endFill=0;exitX=1;exitY=0.5;exitDx=0;exitDy=0;" edge="1" parent="1" target="MSUnSL8aML1kYVfd3VcO-30">
          <mxGeometry relative="1" as="geometry">
            <mxPoint x="165.83999999999997" y="103.75" as="sourcePoint" />
          </mxGeometry>
        </mxCell>
        <mxCell id="MSUnSL8aML1kYVfd3VcO-30" value="" style="ellipse;whiteSpace=wrap;html=1;fontFamily=Helvetica;fontSize=12;fontColor=#000000;align=center;strokeColor=#000000;fillColor=#ffffff;points=[];aspect=fixed;resizable=0;" vertex="1" parent="1">
          <mxGeometry x="178.33999999999997" y="98.75" width="10" height="10" as="geometry" />
        </mxCell>
        <mxCell id="MSUnSL8aML1kYVfd3VcO-31" value="" style="rounded=0;orthogonalLoop=1;jettySize=auto;html=1;endArrow=none;endFill=0;exitX=1;exitY=0.5;exitDx=0;exitDy=0;" edge="1" parent="1">
          <mxGeometry relative="1" as="geometry">
            <mxPoint x="165.83999999999997" y="103.75" as="sourcePoint" />
            <mxPoint x="178.33999999999997" y="103.75" as="targetPoint" />
          </mxGeometry>
        </mxCell>
        <mxCell id="MSUnSL8aML1kYVfd3VcO-32" value="offering" style="html=1;" vertex="1" parent="1">
          <mxGeometry x="452.56999999999994" y="107.5" width="43.25" height="20" as="geometry" />
        </mxCell>
        <mxCell id="MSUnSL8aML1kYVfd3VcO-33" value="" style="rounded=0;orthogonalLoop=1;jettySize=auto;html=1;endArrow=halfCircle;endFill=0;endSize=6;strokeWidth=1;" edge="1" parent="1">
          <mxGeometry relative="1" as="geometry">
            <mxPoint x="703.3499999999999" y="180.41" as="sourcePoint" />
            <mxPoint x="703.3499999999999" y="180.41" as="targetPoint" />
          </mxGeometry>
        </mxCell>
        <mxCell id="MSUnSL8aML1kYVfd3VcO-34" value="" style="rounded=0;orthogonalLoop=1;jettySize=auto;html=1;endArrow=none;endFill=0;exitX=1;exitY=0.5;exitDx=0;exitDy=0;" edge="1" parent="1" target="MSUnSL8aML1kYVfd3VcO-35">
          <mxGeometry relative="1" as="geometry">
            <mxPoint x="166.24999999999994" y="150" as="sourcePoint" />
          </mxGeometry>
        </mxCell>
        <mxCell id="MSUnSL8aML1kYVfd3VcO-35" value="" style="ellipse;whiteSpace=wrap;html=1;fontFamily=Helvetica;fontSize=12;fontColor=#000000;align=center;strokeColor=#000000;fillColor=#ffffff;points=[];aspect=fixed;resizable=0;" vertex="1" parent="1">
          <mxGeometry x="178.74999999999994" y="145" width="10" height="10" as="geometry" />
        </mxCell>
        <mxCell id="MSUnSL8aML1kYVfd3VcO-36" value="" style="rounded=0;orthogonalLoop=1;jettySize=auto;html=1;endArrow=none;endFill=0;exitX=1;exitY=0.5;exitDx=0;exitDy=0;" edge="1" parent="1">
          <mxGeometry relative="1" as="geometry">
            <mxPoint x="166.24999999999994" y="150" as="sourcePoint" />
            <mxPoint x="178.74999999999994" y="150" as="targetPoint" />
          </mxGeometry>
        </mxCell>
        <mxCell id="MSUnSL8aML1kYVfd3VcO-37" value="" style="rounded=0;orthogonalLoop=1;jettySize=auto;html=1;endArrow=none;endFill=0;exitX=1;exitY=0.5;exitDx=0;exitDy=0;" edge="1" parent="1" target="MSUnSL8aML1kYVfd3VcO-38">
          <mxGeometry relative="1" as="geometry">
            <mxPoint x="166.24999999999994" y="150" as="sourcePoint" />
          </mxGeometry>
        </mxCell>
        <mxCell id="MSUnSL8aML1kYVfd3VcO-38" value="" style="ellipse;whiteSpace=wrap;html=1;fontFamily=Helvetica;fontSize=12;fontColor=#000000;align=center;strokeColor=#000000;fillColor=#ffffff;points=[];aspect=fixed;resizable=0;" vertex="1" parent="1">
          <mxGeometry x="178.74999999999994" y="145" width="10" height="10" as="geometry" />
        </mxCell>
        <mxCell id="MSUnSL8aML1kYVfd3VcO-39" value="" style="rounded=0;orthogonalLoop=1;jettySize=auto;html=1;endArrow=none;endFill=0;exitX=1;exitY=0.5;exitDx=0;exitDy=0;" edge="1" parent="1">
          <mxGeometry relative="1" as="geometry">
            <mxPoint x="166.24999999999994" y="150" as="sourcePoint" />
            <mxPoint x="178.74999999999994" y="150" as="targetPoint" />
          </mxGeometry>
        </mxCell>
        <mxCell id="MSUnSL8aML1kYVfd3VcO-40" value="" style="rounded=0;orthogonalLoop=1;jettySize=auto;html=1;endArrow=none;endFill=0;exitX=1;exitY=0.5;exitDx=0;exitDy=0;" edge="1" parent="1" target="MSUnSL8aML1kYVfd3VcO-41">
          <mxGeometry relative="1" as="geometry">
            <mxPoint x="530.82" y="117.5" as="sourcePoint" />
          </mxGeometry>
        </mxCell>
        <mxCell id="MSUnSL8aML1kYVfd3VcO-41" value="" style="ellipse;whiteSpace=wrap;html=1;fontFamily=Helvetica;fontSize=12;fontColor=#000000;align=center;strokeColor=#000000;fillColor=#ffffff;points=[];aspect=fixed;resizable=0;" vertex="1" parent="1">
          <mxGeometry x="543.32" y="112.5" width="10" height="10" as="geometry" />
        </mxCell>
        <mxCell id="MSUnSL8aML1kYVfd3VcO-42" value="" style="rounded=0;orthogonalLoop=1;jettySize=auto;html=1;endArrow=none;endFill=0;exitX=1;exitY=0.5;exitDx=0;exitDy=0;" edge="1" parent="1">
          <mxGeometry relative="1" as="geometry">
            <mxPoint x="530.82" y="117.5" as="sourcePoint" />
            <mxPoint x="543.32" y="117.5" as="targetPoint" />
          </mxGeometry>
        </mxCell>
        <mxCell id="MSUnSL8aML1kYVfd3VcO-43" value="" style="rounded=0;orthogonalLoop=1;jettySize=auto;html=1;endArrow=none;endFill=0;exitX=1;exitY=0.5;exitDx=0;exitDy=0;" edge="1" parent="1" target="MSUnSL8aML1kYVfd3VcO-44">
          <mxGeometry relative="1" as="geometry">
            <mxPoint x="530.82" y="117.5" as="sourcePoint" />
          </mxGeometry>
        </mxCell>
        <mxCell id="MSUnSL8aML1kYVfd3VcO-44" value="" style="ellipse;whiteSpace=wrap;html=1;fontFamily=Helvetica;fontSize=12;fontColor=#000000;align=center;strokeColor=#000000;fillColor=#ffffff;points=[];aspect=fixed;resizable=0;" vertex="1" parent="1">
          <mxGeometry x="543.32" y="112.5" width="10" height="10" as="geometry" />
        </mxCell>
        <mxCell id="MSUnSL8aML1kYVfd3VcO-45" value="" style="rounded=0;orthogonalLoop=1;jettySize=auto;html=1;endArrow=none;endFill=0;exitX=1;exitY=0.5;exitDx=0;exitDy=0;" edge="1" parent="1">
          <mxGeometry relative="1" as="geometry">
            <mxPoint x="530.82" y="117.5" as="sourcePoint" />
            <mxPoint x="543.32" y="117.5" as="targetPoint" />
          </mxGeometry>
        </mxCell>
        <mxCell id="MSUnSL8aML1kYVfd3VcO-46" value="" style="rounded=0;orthogonalLoop=1;jettySize=auto;html=1;endArrow=none;endFill=0;exitX=1;exitY=0.5;exitDx=0;exitDy=0;" edge="1" parent="1" target="MSUnSL8aML1kYVfd3VcO-47">
          <mxGeometry relative="1" as="geometry">
            <mxPoint x="530.82" y="117.5" as="sourcePoint" />
          </mxGeometry>
        </mxCell>
        <mxCell id="MSUnSL8aML1kYVfd3VcO-47" value="" style="ellipse;whiteSpace=wrap;html=1;fontFamily=Helvetica;fontSize=12;fontColor=#000000;align=center;strokeColor=#000000;fillColor=#ffffff;points=[];aspect=fixed;resizable=0;" vertex="1" parent="1">
          <mxGeometry x="543.32" y="112.5" width="10" height="10" as="geometry" />
        </mxCell>
        <mxCell id="MSUnSL8aML1kYVfd3VcO-48" value="" style="rounded=0;orthogonalLoop=1;jettySize=auto;html=1;endArrow=none;endFill=0;exitX=1;exitY=0.5;exitDx=0;exitDy=0;" edge="1" parent="1">
          <mxGeometry relative="1" as="geometry">
            <mxPoint x="530.82" y="117.5" as="sourcePoint" />
            <mxPoint x="543.32" y="117.5" as="targetPoint" />
          </mxGeometry>
        </mxCell>
        <mxCell id="MSUnSL8aML1kYVfd3VcO-49" value="" style="rounded=0;orthogonalLoop=1;jettySize=auto;html=1;endArrow=none;endFill=0;exitX=1;exitY=0.5;exitDx=0;exitDy=0;" edge="1" parent="1" target="MSUnSL8aML1kYVfd3VcO-50">
          <mxGeometry relative="1" as="geometry">
            <mxPoint x="530.82" y="117.5" as="sourcePoint" />
          </mxGeometry>
        </mxCell>
        <mxCell id="MSUnSL8aML1kYVfd3VcO-50" value="" style="ellipse;whiteSpace=wrap;html=1;fontFamily=Helvetica;fontSize=12;fontColor=#000000;align=center;strokeColor=#000000;fillColor=#ffffff;points=[];aspect=fixed;resizable=0;" vertex="1" parent="1">
          <mxGeometry x="543.32" y="112.5" width="10" height="10" as="geometry" />
        </mxCell>
        <mxCell id="MSUnSL8aML1kYVfd3VcO-51" value="" style="rounded=0;orthogonalLoop=1;jettySize=auto;html=1;endArrow=none;endFill=0;exitX=1;exitY=0.5;exitDx=0;exitDy=0;" edge="1" parent="1">
          <mxGeometry relative="1" as="geometry">
            <mxPoint x="530.82" y="117.5" as="sourcePoint" />
            <mxPoint x="543.32" y="117.5" as="targetPoint" />
          </mxGeometry>
        </mxCell>
        <mxCell id="MSUnSL8aML1kYVfd3VcO-52" value="" style="rounded=0;orthogonalLoop=1;jettySize=auto;html=1;endArrow=halfCircle;endFill=0;endSize=6;strokeWidth=1;exitX=0;exitY=0.5;exitDx=0;exitDy=0;entryX=0.5;entryY=0.5;entryDx=0;entryDy=0;entryPerimeter=0;" edge="1" parent="1">
          <mxGeometry relative="1" as="geometry">
            <mxPoint x="452.56999999999994" y="117" as="sourcePoint" />
            <mxPoint x="427.56999999999994" y="117" as="targetPoint" />
          </mxGeometry>
        </mxCell>
        <mxCell id="MSUnSL8aML1kYVfd3VcO-53" value="single-optional" style="text;html=1;align=center;verticalAlign=middle;resizable=0;points=[];autosize=1;" vertex="1" parent="1">
          <mxGeometry x="1040" y="100" width="90" height="20" as="geometry" />
        </mxCell>
        <mxCell id="MSUnSL8aML1kYVfd3VcO-54" value="single-mandatory" style="text;html=1;align=center;verticalAlign=middle;resizable=0;points=[];autosize=1;" vertex="1" parent="1">
          <mxGeometry x="1035" y="120" width="110" height="20" as="geometry" />
        </mxCell>
        <mxCell id="MSUnSL8aML1kYVfd3VcO-55" value="multiple-optional" style="text;html=1;align=center;verticalAlign=middle;resizable=0;points=[];autosize=1;" vertex="1" parent="1">
          <mxGeometry x="1035" y="140" width="100" height="20" as="geometry" />
        </mxCell>
        <mxCell id="MSUnSL8aML1kYVfd3VcO-56" value="multiple mandatory" style="text;html=1;align=center;verticalAlign=middle;resizable=0;points=[];autosize=1;" vertex="1" parent="1">
          <mxGeometry x="1030" y="160" width="120" height="20" as="geometry" />
        </mxCell>
        <mxCell id="MSUnSL8aML1kYVfd3VcO-60" value="VInfo" style="text;html=1;align=center;verticalAlign=middle;resizable=0;points=[];autosize=1;" vertex="1" parent="1">
          <mxGeometry x="113.34" y="280" width="40" height="20" as="geometry" />
        </mxCell>
        <mxCell id="MSUnSL8aML1kYVfd3VcO-61" value="SInfo" style="text;html=1;align=center;verticalAlign=middle;resizable=0;points=[];autosize=1;" vertex="1" parent="1">
          <mxGeometry x="33.34" y="280" width="40" height="20" as="geometry" />
        </mxCell>
        <mxCell id="MSUnSL8aML1kYVfd3VcO-62" value="int" style="text;html=1;align=center;verticalAlign=middle;resizable=0;points=[];autosize=1;" vertex="1" parent="1">
          <mxGeometry x="188.34" y="275" width="30" height="20" as="geometry" />
        </mxCell>
        <mxCell id="MSUnSL8aML1kYVfd3VcO-63" value="float" style="text;html=1;align=center;verticalAlign=middle;resizable=0;points=[];autosize=1;" vertex="1" parent="1">
          <mxGeometry x="260" y="275" width="40" height="20" as="geometry" />
        </mxCell>
        <mxCell id="MSUnSL8aML1kYVfd3VcO-64" value="battery" style="text;html=1;align=center;verticalAlign=middle;resizable=0;points=[];autosize=1;" vertex="1" parent="1">
          <mxGeometry x="1031" y="250" width="50" height="20" as="geometry" />
        </mxCell>
        <mxCell id="MSUnSL8aML1kYVfd3VcO-65" value="positionS" style="text;html=1;align=center;verticalAlign=middle;resizable=0;points=[];autosize=1;" vertex="1" parent="1">
          <mxGeometry x="1031" y="275" width="60" height="20" as="geometry" />
        </mxCell>
        <mxCell id="MSUnSL8aML1kYVfd3VcO-66" value="positionV" style="text;html=1;align=center;verticalAlign=middle;resizable=0;points=[];autosize=1;" vertex="1" parent="1">
          <mxGeometry x="1089" y="250" width="60" height="20" as="geometry" />
        </mxCell>
        <mxCell id="MSUnSL8aML1kYVfd3VcO-67" value="speed" style="text;html=1;align=center;verticalAlign=middle;resizable=0;points=[];autosize=1;" vertex="1" parent="1">
          <mxGeometry x="1094" y="275" width="50" height="20" as="geometry" />
        </mxCell>
        <mxCell id="MSUnSL8aML1kYVfd3VcO-68" value="goal" style="text;html=1;align=center;verticalAlign=middle;resizable=0;points=[];autosize=1;" vertex="1" parent="1">
          <mxGeometry x="1111" y="295" width="40" height="20" as="geometry" />
        </mxCell>
        <mxCell id="MSUnSL8aML1kYVfd3VcO-69" value="consumption" style="text;html=1;align=center;verticalAlign=middle;resizable=0;points=[];autosize=1;" vertex="1" parent="1">
          <mxGeometry x="1031" y="295" width="80" height="20" as="geometry" />
        </mxCell>
        <mxCell id="MSUnSL8aML1kYVfd3VcO-70" value="&lt;b&gt;CTypes&lt;/b&gt;" style="text;html=1;align=center;verticalAlign=middle;resizable=0;points=[];autosize=1;" vertex="1" parent="1">
          <mxGeometry x="140" y="45" width="60" height="20" as="geometry" />
        </mxCell>
        <mxCell id="MSUnSL8aML1kYVfd3VcO-71" value="&lt;b&gt;Contingencies&lt;/b&gt;" style="text;html=1;align=center;verticalAlign=middle;resizable=0;points=[];autosize=1;" vertex="1" parent="1">
          <mxGeometry x="1040" y="65" width="100" height="20" as="geometry" />
        </mxCell>
        <mxCell id="MSUnSL8aML1kYVfd3VcO-74" value="&lt;b&gt;Parameters&lt;/b&gt;" style="text;html=1;align=center;verticalAlign=middle;resizable=0;points=[];autosize=1;" vertex="1" parent="1">
          <mxGeometry x="1051" y="225" width="80" height="20" as="geometry" />
        </mxCell>
        <mxCell id="MSUnSL8aML1kYVfd3VcO-75" value="&lt;b&gt;ITypes&lt;/b&gt;" style="text;html=1;align=center;verticalAlign=middle;resizable=0;points=[];autosize=1;" vertex="1" parent="1">
          <mxGeometry x="68.34" y="260" width="50" height="20" as="geometry" />
        </mxCell>
        <mxCell id="MSUnSL8aML1kYVfd3VcO-76" value="&lt;b&gt;PTypes&lt;/b&gt;" style="text;html=1;align=center;verticalAlign=middle;resizable=0;points=[];autosize=1;" vertex="1" parent="1">
          <mxGeometry x="210" y="260" width="60" height="20" as="geometry" />
        </mxCell>
        <mxCell id="MSUnSL8aML1kYVfd3VcO-77" value="" style="rounded=1;whiteSpace=wrap;html=1;fillColor=#C4E8F5;" vertex="1" parent="1">
          <mxGeometry x="600" y="555" width="100" height="110" as="geometry" />
        </mxCell>
        <mxCell id="MSUnSL8aML1kYVfd3VcO-78" value="" style="rounded=1;whiteSpace=wrap;html=1;fillColor=#C4E8F5;" vertex="1" parent="1">
          <mxGeometry x="600" y="400" width="100" height="140" as="geometry" />
        </mxCell>
        <mxCell id="MSUnSL8aML1kYVfd3VcO-79" value="&lt;b&gt;IRequired&lt;/b&gt;" style="text;html=1;align=center;verticalAlign=middle;resizable=0;points=[];autosize=1;" vertex="1" parent="1">
          <mxGeometry x="615" y="400" width="70" height="20" as="geometry" />
        </mxCell>
        <mxCell id="MSUnSL8aML1kYVfd3VcO-80" value="&lt;b&gt;IProvided&lt;/b&gt;" style="text;html=1;align=center;verticalAlign=middle;resizable=0;points=[];autosize=1;" vertex="1" parent="1">
          <mxGeometry x="615" y="555" width="70" height="20" as="geometry" />
        </mxCell>
        <mxCell id="MSUnSL8aML1kYVfd3VcO-89" value="road" style="html=1;align=center;verticalAlign=top;rounded=1;absoluteArcSize=1;arcSize=10;dashed=0;" vertex="1" parent="1">
          <mxGeometry x="265" y="342.5" width="76.68" height="45" as="geometry" />
        </mxCell>
        <mxCell id="MSUnSL8aML1kYVfd3VcO-90" value="vehicle" style="html=1;align=center;verticalAlign=top;rounded=1;absoluteArcSize=1;arcSize=10;dashed=0;" vertex="1" parent="1">
          <mxGeometry x="852" y="85" width="76.68" height="90" as="geometry" />
        </mxCell>
        <mxCell id="MSUnSL8aML1kYVfd3VcO-91" value="" style="rounded=0;orthogonalLoop=1;jettySize=auto;html=1;endArrow=halfCircle;endFill=0;endSize=6;strokeWidth=1;exitX=0;exitY=0.5;exitDx=0;exitDy=0;entryX=0.5;entryY=0.5;entryDx=0;entryDy=0;entryPerimeter=0;" edge="1" parent="1" source="MSUnSL8aML1kYVfd3VcO-92">
          <mxGeometry relative="1" as="geometry">
            <mxPoint x="1062" y="288.75" as="sourcePoint" />
            <mxPoint x="827" y="118.75000000000011" as="targetPoint" />
          </mxGeometry>
        </mxCell>
        <mxCell id="MSUnSL8aML1kYVfd3VcO-92" value="connV" style="html=1;" vertex="1" parent="1">
          <mxGeometry x="852" y="108.75" width="35" height="20" as="geometry" />
        </mxCell>
        <mxCell id="MSUnSL8aML1kYVfd3VcO-93" value="next" style="html=1;" vertex="1" parent="1">
          <mxGeometry x="898.6600000000001" y="108.75" width="30" height="20" as="geometry" />
        </mxCell>
        <mxCell id="MSUnSL8aML1kYVfd3VcO-94" value="moving" style="html=1;" vertex="1" parent="1">
          <mxGeometry x="301.67999999999995" y="363.75" width="40" height="20" as="geometry" />
        </mxCell>
        <mxCell id="MSUnSL8aML1kYVfd3VcO-95" value="docks" style="html=1;" vertex="1" parent="1">
          <mxGeometry x="852" y="140" width="35" height="20" as="geometry" />
        </mxCell>
        <mxCell id="MSUnSL8aML1kYVfd3VcO-96" value="" style="rounded=0;orthogonalLoop=1;jettySize=auto;html=1;endArrow=halfCircle;endFill=0;endSize=6;strokeWidth=1;exitX=0;exitY=0.5;exitDx=0;exitDy=0;entryX=0.5;entryY=0.5;entryDx=0;entryDy=0;entryPerimeter=0;" edge="1" parent="1">
          <mxGeometry relative="1" as="geometry">
            <mxPoint x="852" y="149.5" as="sourcePoint" />
            <mxPoint x="827" y="149.5" as="targetPoint" />
          </mxGeometry>
        </mxCell>
        <mxCell id="MSUnSL8aML1kYVfd3VcO-97" value="" style="rounded=0;orthogonalLoop=1;jettySize=auto;html=1;endArrow=none;endFill=0;exitX=1;exitY=0.5;exitDx=0;exitDy=0;" edge="1" parent="1" target="MSUnSL8aML1kYVfd3VcO-98">
          <mxGeometry relative="1" as="geometry">
            <mxPoint x="340.42999999999995" y="373.75" as="sourcePoint" />
          </mxGeometry>
        </mxCell>
        <mxCell id="MSUnSL8aML1kYVfd3VcO-98" value="" style="ellipse;whiteSpace=wrap;html=1;fontFamily=Helvetica;fontSize=12;fontColor=#000000;align=center;strokeColor=#000000;fillColor=#ffffff;points=[];aspect=fixed;resizable=0;" vertex="1" parent="1">
          <mxGeometry x="352.92999999999995" y="368.75" width="10" height="10" as="geometry" />
        </mxCell>
        <mxCell id="MSUnSL8aML1kYVfd3VcO-99" value="" style="rounded=0;orthogonalLoop=1;jettySize=auto;html=1;endArrow=none;endFill=0;exitX=1;exitY=0.5;exitDx=0;exitDy=0;" edge="1" parent="1">
          <mxGeometry relative="1" as="geometry">
            <mxPoint x="340.42999999999995" y="373.75" as="sourcePoint" />
            <mxPoint x="352.92999999999995" y="373.75" as="targetPoint" />
          </mxGeometry>
        </mxCell>
        <mxCell id="MSUnSL8aML1kYVfd3VcO-100" value="" style="rounded=0;orthogonalLoop=1;jettySize=auto;html=1;endArrow=none;endFill=0;exitX=1;exitY=0.5;exitDx=0;exitDy=0;" edge="1" parent="1" target="MSUnSL8aML1kYVfd3VcO-101">
          <mxGeometry relative="1" as="geometry">
            <mxPoint x="340.42999999999995" y="373.75" as="sourcePoint" />
          </mxGeometry>
        </mxCell>
        <mxCell id="MSUnSL8aML1kYVfd3VcO-101" value="" style="ellipse;whiteSpace=wrap;html=1;fontFamily=Helvetica;fontSize=12;fontColor=#000000;align=center;strokeColor=#000000;fillColor=#ffffff;points=[];aspect=fixed;resizable=0;" vertex="1" parent="1">
          <mxGeometry x="352.92999999999995" y="368.75" width="10" height="10" as="geometry" />
        </mxCell>
        <mxCell id="MSUnSL8aML1kYVfd3VcO-102" value="" style="rounded=0;orthogonalLoop=1;jettySize=auto;html=1;endArrow=none;endFill=0;exitX=1;exitY=0.5;exitDx=0;exitDy=0;" edge="1" parent="1">
          <mxGeometry relative="1" as="geometry">
            <mxPoint x="340.42999999999995" y="373.75" as="sourcePoint" />
            <mxPoint x="352.92999999999995" y="373.75" as="targetPoint" />
          </mxGeometry>
        </mxCell>
        <mxCell id="MSUnSL8aML1kYVfd3VcO-104" value="road" style="text;html=1;align=center;verticalAlign=middle;resizable=0;points=[];autosize=1;" vertex="1" parent="1">
          <mxGeometry x="108.75" y="73.75" width="40" height="20" as="geometry" />
        </mxCell>
        <mxCell id="MSUnSL8aML1kYVfd3VcO-105" value="vehicle" style="html=1;align=center;verticalAlign=top;rounded=1;absoluteArcSize=1;arcSize=10;dashed=0;" vertex="1" parent="1">
          <mxGeometry x="578.32" y="83.41" width="76.68" height="90" as="geometry" />
        </mxCell>
        <mxCell id="MSUnSL8aML1kYVfd3VcO-106" value="" style="rounded=0;orthogonalLoop=1;jettySize=auto;html=1;endArrow=halfCircle;endFill=0;endSize=6;strokeWidth=1;exitX=0;exitY=0.5;exitDx=0;exitDy=0;" edge="1" parent="1" source="MSUnSL8aML1kYVfd3VcO-107">
          <mxGeometry relative="1" as="geometry">
            <mxPoint x="788.32" y="287.15999999999997" as="sourcePoint" />
            <mxPoint x="553.32" y="117.16" as="targetPoint" />
          </mxGeometry>
        </mxCell>
        <mxCell id="MSUnSL8aML1kYVfd3VcO-107" value="connV" style="html=1;" vertex="1" parent="1">
          <mxGeometry x="578.32" y="107.16" width="35" height="20" as="geometry" />
        </mxCell>
        <mxCell id="MSUnSL8aML1kYVfd3VcO-108" value="next" style="html=1;" vertex="1" parent="1">
          <mxGeometry x="624.98" y="107.16" width="30" height="20" as="geometry" />
        </mxCell>
        <mxCell id="MSUnSL8aML1kYVfd3VcO-109" value="docks" style="html=1;" vertex="1" parent="1">
          <mxGeometry x="578.32" y="138.41" width="35" height="20" as="geometry" />
        </mxCell>
        <mxCell id="MSUnSL8aML1kYVfd3VcO-110" value="" style="rounded=0;orthogonalLoop=1;jettySize=auto;html=1;endArrow=halfCircle;endFill=0;endSize=6;strokeWidth=1;exitX=0;exitY=0.5;exitDx=0;exitDy=0;entryX=0.5;entryY=0.5;entryDx=0;entryDy=0;entryPerimeter=0;" edge="1" parent="1">
          <mxGeometry relative="1" as="geometry">
            <mxPoint x="578.3199999999999" y="147.91" as="sourcePoint" />
            <mxPoint x="553.3199999999999" y="147.91" as="targetPoint" />
          </mxGeometry>
        </mxCell>
        <mxCell id="MSUnSL8aML1kYVfd3VcO-111" value="" style="rounded=0;orthogonalLoop=1;jettySize=auto;html=1;endArrow=none;endFill=0;exitX=1;exitY=0.5;exitDx=0;exitDy=0;" edge="1" parent="1" target="MSUnSL8aML1kYVfd3VcO-112">
          <mxGeometry relative="1" as="geometry">
            <mxPoint x="654.98" y="117.16" as="sourcePoint" />
          </mxGeometry>
        </mxCell>
        <mxCell id="MSUnSL8aML1kYVfd3VcO-112" value="" style="ellipse;whiteSpace=wrap;html=1;fontFamily=Helvetica;fontSize=12;fontColor=#000000;align=center;strokeColor=#000000;fillColor=#ffffff;points=[];aspect=fixed;resizable=0;" vertex="1" parent="1">
          <mxGeometry x="667.48" y="112.16" width="10" height="10" as="geometry" />
        </mxCell>
        <mxCell id="MSUnSL8aML1kYVfd3VcO-115" value="vehicle" style="html=1;align=center;verticalAlign=top;rounded=1;absoluteArcSize=1;arcSize=10;dashed=0;" vertex="1" parent="1">
          <mxGeometry x="698.32" y="83.41" width="76.68" height="90" as="geometry" />
        </mxCell>
        <mxCell id="MSUnSL8aML1kYVfd3VcO-116" value="" style="rounded=0;orthogonalLoop=1;jettySize=auto;html=1;endArrow=halfCircle;endFill=0;endSize=6;strokeWidth=1;exitX=0;exitY=0.5;exitDx=0;exitDy=0;entryX=0.5;entryY=0.5;entryDx=0;entryDy=0;entryPerimeter=0;" edge="1" parent="1" source="MSUnSL8aML1kYVfd3VcO-117">
          <mxGeometry relative="1" as="geometry">
            <mxPoint x="908.32" y="287.15999999999997" as="sourcePoint" />
            <mxPoint x="673.3199999999999" y="117.16000000000011" as="targetPoint" />
          </mxGeometry>
        </mxCell>
        <mxCell id="MSUnSL8aML1kYVfd3VcO-117" value="connV" style="html=1;" vertex="1" parent="1">
          <mxGeometry x="698.32" y="107.16" width="35" height="20" as="geometry" />
        </mxCell>
        <mxCell id="MSUnSL8aML1kYVfd3VcO-118" value="next" style="html=1;" vertex="1" parent="1">
          <mxGeometry x="744.9799999999999" y="107.16" width="30" height="20" as="geometry" />
        </mxCell>
        <mxCell id="MSUnSL8aML1kYVfd3VcO-119" value="docks" style="html=1;" vertex="1" parent="1">
          <mxGeometry x="698.32" y="138.41" width="35" height="20" as="geometry" />
        </mxCell>
        <mxCell id="MSUnSL8aML1kYVfd3VcO-120" value="" style="rounded=0;orthogonalLoop=1;jettySize=auto;html=1;endArrow=halfCircle;endFill=0;endSize=6;strokeWidth=1;exitX=0;exitY=0.5;exitDx=0;exitDy=0;entryX=0.5;entryY=0.5;entryDx=0;entryDy=0;entryPerimeter=0;" edge="1" parent="1">
          <mxGeometry relative="1" as="geometry">
            <mxPoint x="698.3199999999999" y="147.91" as="sourcePoint" />
            <mxPoint x="673.3199999999999" y="147.91" as="targetPoint" />
          </mxGeometry>
        </mxCell>
        <mxCell id="MSUnSL8aML1kYVfd3VcO-121" value="" style="rounded=0;orthogonalLoop=1;jettySize=auto;html=1;endArrow=none;endFill=0;exitX=1;exitY=0.5;exitDx=0;exitDy=0;" edge="1" parent="1" target="MSUnSL8aML1kYVfd3VcO-122">
          <mxGeometry relative="1" as="geometry">
            <mxPoint x="774.98" y="117.16" as="sourcePoint" />
          </mxGeometry>
        </mxCell>
        <mxCell id="MSUnSL8aML1kYVfd3VcO-122" value="" style="ellipse;whiteSpace=wrap;html=1;fontFamily=Helvetica;fontSize=12;fontColor=#000000;align=center;strokeColor=#000000;fillColor=#ffffff;points=[];aspect=fixed;resizable=0;" vertex="1" parent="1">
          <mxGeometry x="787.4799999999999" y="112.16" width="10" height="10" as="geometry" />
        </mxCell>
        <mxCell id="MSUnSL8aML1kYVfd3VcO-123" value="" style="html=1;align=center;verticalAlign=top;rounded=1;absoluteArcSize=1;arcSize=10;dashed=0;" vertex="1" parent="1">
          <mxGeometry x="335.42999999999995" y="87.5" width="76.68" height="45" as="geometry" />
        </mxCell>
        <mxCell id="MSUnSL8aML1kYVfd3VcO-124" value="moving" style="html=1;" vertex="1" parent="1">
          <mxGeometry x="372.10999999999996" y="106.25" width="40" height="20" as="geometry" />
        </mxCell>
        <mxCell id="MSUnSL8aML1kYVfd3VcO-125" value="" style="rounded=0;orthogonalLoop=1;jettySize=auto;html=1;endArrow=none;endFill=0;exitX=1;exitY=0.5;exitDx=0;exitDy=0;" edge="1" parent="1" target="MSUnSL8aML1kYVfd3VcO-126">
          <mxGeometry relative="1" as="geometry">
            <mxPoint x="410.8599999999999" y="116.24999999999989" as="sourcePoint" />
          </mxGeometry>
        </mxCell>
        <mxCell id="MSUnSL8aML1kYVfd3VcO-126" value="" style="ellipse;whiteSpace=wrap;html=1;fontFamily=Helvetica;fontSize=12;fontColor=#000000;align=center;strokeColor=#000000;fillColor=#ffffff;points=[];aspect=fixed;resizable=0;" vertex="1" parent="1">
          <mxGeometry x="423.35999999999996" y="111.25" width="10" height="10" as="geometry" />
        </mxCell>
        <mxCell id="MSUnSL8aML1kYVfd3VcO-127" value="" style="rounded=0;orthogonalLoop=1;jettySize=auto;html=1;endArrow=none;endFill=0;exitX=1;exitY=0.5;exitDx=0;exitDy=0;" edge="1" parent="1">
          <mxGeometry relative="1" as="geometry">
            <mxPoint x="410.8599999999999" y="116.24999999999989" as="sourcePoint" />
            <mxPoint x="423.3599999999999" y="116.24999999999989" as="targetPoint" />
          </mxGeometry>
        </mxCell>
        <mxCell id="MSUnSL8aML1kYVfd3VcO-128" value="" style="rounded=0;orthogonalLoop=1;jettySize=auto;html=1;endArrow=none;endFill=0;exitX=1;exitY=0.5;exitDx=0;exitDy=0;" edge="1" parent="1" target="MSUnSL8aML1kYVfd3VcO-129">
          <mxGeometry relative="1" as="geometry">
            <mxPoint x="410.8599999999999" y="116.24999999999989" as="sourcePoint" />
          </mxGeometry>
        </mxCell>
        <mxCell id="MSUnSL8aML1kYVfd3VcO-129" value="" style="ellipse;whiteSpace=wrap;html=1;fontFamily=Helvetica;fontSize=12;fontColor=#000000;align=center;strokeColor=#000000;fillColor=#ffffff;points=[];aspect=fixed;resizable=0;" vertex="1" parent="1">
          <mxGeometry x="423.35999999999996" y="111.25" width="10" height="10" as="geometry" />
        </mxCell>
        <mxCell id="MSUnSL8aML1kYVfd3VcO-130" value="" style="rounded=0;orthogonalLoop=1;jettySize=auto;html=1;endArrow=none;endFill=0;exitX=1;exitY=0.5;exitDx=0;exitDy=0;" edge="1" parent="1">
          <mxGeometry relative="1" as="geometry">
            <mxPoint x="410.8599999999999" y="116.24999999999989" as="sourcePoint" />
            <mxPoint x="423.3599999999999" y="116.24999999999989" as="targetPoint" />
          </mxGeometry>
        </mxCell>
        <mxCell id="MSUnSL8aML1kYVfd3VcO-131" value="road" style="text;html=1;align=center;verticalAlign=middle;resizable=0;points=[];autosize=1;" vertex="1" parent="1">
          <mxGeometry x="353.77" y="86.25" width="40" height="20" as="geometry" />
        </mxCell>
        <mxCell id="MSUnSL8aML1kYVfd3VcO-132" value="&lt;b&gt;...&lt;/b&gt;" style="text;html=1;align=center;verticalAlign=middle;resizable=0;points=[];autosize=1;" vertex="1" parent="1">
          <mxGeometry x="797.48" y="106.25" width="30" height="20" as="geometry" />
        </mxCell>
        <mxCell id="MSUnSL8aML1kYVfd3VcO-133" value="" style="rounded=0;orthogonalLoop=1;jettySize=auto;html=1;endArrow=none;endFill=0;exitX=1;exitY=0.5;exitDx=0;exitDy=0;" edge="1" parent="1" target="MSUnSL8aML1kYVfd3VcO-134">
          <mxGeometry relative="1" as="geometry">
            <mxPoint x="774.98" y="117.15999999999997" as="sourcePoint" />
          </mxGeometry>
        </mxCell>
        <mxCell id="MSUnSL8aML1kYVfd3VcO-134" value="" style="ellipse;whiteSpace=wrap;html=1;fontFamily=Helvetica;fontSize=12;fontColor=#000000;align=center;strokeColor=#000000;fillColor=#ffffff;points=[];aspect=fixed;resizable=0;" vertex="1" parent="1">
          <mxGeometry x="787.4799999999999" y="112.16" width="10" height="10" as="geometry" />
        </mxCell>
        <mxCell id="MSUnSL8aML1kYVfd3VcO-135" value="" style="rounded=0;orthogonalLoop=1;jettySize=auto;html=1;endArrow=none;endFill=0;exitX=1;exitY=0.5;exitDx=0;exitDy=0;" edge="1" parent="1" target="MSUnSL8aML1kYVfd3VcO-136">
          <mxGeometry relative="1" as="geometry">
            <mxPoint x="928.66" y="118.75" as="sourcePoint" />
          </mxGeometry>
        </mxCell>
        <mxCell id="MSUnSL8aML1kYVfd3VcO-136" value="" style="ellipse;whiteSpace=wrap;html=1;fontFamily=Helvetica;fontSize=12;fontColor=#000000;align=center;strokeColor=#000000;fillColor=#ffffff;points=[];aspect=fixed;resizable=0;" vertex="1" parent="1">
          <mxGeometry x="941.16" y="113.75" width="10" height="10" as="geometry" />
        </mxCell>
        <mxCell id="MSUnSL8aML1kYVfd3VcO-137" value="" style="rounded=0;orthogonalLoop=1;jettySize=auto;html=1;endArrow=none;endFill=0;exitX=1;exitY=0.5;exitDx=0;exitDy=0;" edge="1" parent="1">
          <mxGeometry relative="1" as="geometry">
            <mxPoint x="928.66" y="118.75" as="sourcePoint" />
            <mxPoint x="941.16" y="118.75" as="targetPoint" />
          </mxGeometry>
        </mxCell>
        <mxCell id="MSUnSL8aML1kYVfd3VcO-138" value="" style="rounded=0;orthogonalLoop=1;jettySize=auto;html=1;endArrow=none;endFill=0;exitX=1;exitY=0.5;exitDx=0;exitDy=0;" edge="1" parent="1" target="MSUnSL8aML1kYVfd3VcO-139">
          <mxGeometry relative="1" as="geometry">
            <mxPoint x="928.66" y="118.75" as="sourcePoint" />
          </mxGeometry>
        </mxCell>
        <mxCell id="MSUnSL8aML1kYVfd3VcO-139" value="" style="ellipse;whiteSpace=wrap;html=1;fontFamily=Helvetica;fontSize=12;fontColor=#000000;align=center;strokeColor=#000000;fillColor=#ffffff;points=[];aspect=fixed;resizable=0;" vertex="1" parent="1">
          <mxGeometry x="941.16" y="113.75" width="10" height="10" as="geometry" />
        </mxCell>
        <mxCell id="MSUnSL8aML1kYVfd3VcO-140" value="" style="rounded=0;orthogonalLoop=1;jettySize=auto;html=1;endArrow=none;endFill=0;exitX=1;exitY=0.5;exitDx=0;exitDy=0;" edge="1" parent="1">
          <mxGeometry relative="1" as="geometry">
            <mxPoint x="928.66" y="118.75" as="sourcePoint" />
            <mxPoint x="941.16" y="118.75" as="targetPoint" />
          </mxGeometry>
        </mxCell>
      </root>
    </mxGraphModel>
  </diagram>
</mxfile>
